<?xml version="1.0" encoding="UTF-8"?>
<svg id="uuid-6c280471-d64f-45ee-9b2f-9d185d9bf259" data-name="Layer 1" xmlns="http://www.w3.org/2000/svg" viewBox="0 0 380 400">
  <defs>
    <style>
      .uuid-300b2754-f62e-437a-8d3d-c58de399d74c {
        fill: #00adee;
      }

      .uuid-300b2754-f62e-437a-8d3d-c58de399d74c, .uuid-34b7f330-4a12-4b0b-8780-fba6918e40cf, .uuid-0fb7822c-6fe8-4aab-8838-3be0980bc446 {
        stroke-width: 0px;
      }

      .uuid-34b7f330-4a12-4b0b-8780-fba6918e40cf {
        fill: #fff;
      }

      .uuid-0fb7822c-6fe8-4aab-8838-3be0980bc446 {
        fill: #263779;
      }
    </style>
  </defs>
  <rect class="uuid-34b7f330-4a12-4b0b-8780-fba6918e40cf" width="380" height="400"/>
  <g>
    <path class="uuid-300b2754-f62e-437a-8d3d-c58de399d74c" d="m71.99,260.46h24.71l7.54-16.6,11.35-26.02c-8.6.38-17.16,1.3-25.73,2.77l-17.87,39.85Z"/>
    <path class="uuid-0fb7822c-6fe8-4aab-8838-3be0980bc446" d="m256.86,246.57c-14.83,0-31.09-2.54-50-6.77v20.66h57.35c22.44,0,41-6.79,44.62-27.7-16.61,9.61-32.98,13.81-51.97,13.81h0Z"/>
    <path class="uuid-0fb7822c-6fe8-4aab-8838-3be0980bc446" d="m347.64,190.96c-42.69,29.45-80.18,28.78-118.32,22.68v-5.52h34.89c4.34,0,9.67,1.24,14.05,3.73h0c8.59-.71,16.87-2.2,24.95-4.51-3.04-4.14-7.33-7.72-13.1-9.41,11.23-5.01,15.72-13.82,15.72-23.32,0-24.36-17.79-35.07-41.63-35.07h-57.35v70.09c-26.54-5.01-53.93-10.3-84.06-7.89l15.86-36.81,13.96,32.01c8.7.56,17.18,1.59,25.51,2.86l-27.03-60.26h-24.87l-29.7,66.29c-19.95,4.65-41.19,13.23-64.18,27.69,145.35-64.39,206.06,51.78,315.29-42.56Zm-118.32-30.69h34.89c14.51,0,19,9.33,19,14.86,0,6.91-4.66,12.96-19,12.96h-34.89v-27.81Z"/>
    <path class="uuid-300b2754-f62e-437a-8d3d-c58de399d74c" d="m190.38,227.1h0s-.18-.03-.18-.03c-9.16-1.55-17.92-3.07-26.12-4.19l-.15-.02h0c-3.09-.42-6.1-.78-9.02-1.07,3.3.88,6.52,1.74,9.68,2.57l10.44,23.93,5.44,12.18h24.87l-12.97-28.92c65.47,16.21,96.74,16.61,140.68-22.59-46.19,33.26-99.04,25.51-142.67,18.15Z"/>
  </g>
</svg>